<svg xmlns="http://www.w3.org/2000/svg" xmlns:xlink="http://www.w3.org/1999/xlink" width="180" height="46.909" viewBox="0 0 180 46.909"><defs><linearGradient id="a" x1="0.5" x2="0.5" y2="1" gradientUnits="objectBoundingBox"><stop offset="0" stop-color="#eaf6fa"/><stop offset="0.99" stop-color="#fff"/><stop offset="1" stop-color="#ebeef9"/></linearGradient></defs><g transform="translate(-1.398 -1.531)"><g transform="translate(1.398 1.531)"><path d="M300.026,415.255l-3.1,8.13a2.713,2.713,0,0,1,.819.75l18.027-8.723a3.2,3.2,0,0,1-.149-.964c0-.067.006-.133.01-.2l-9.946-2.088A4.662,4.662,0,0,1,300.026,415.255Z" transform="translate(-287.213 -398.333)" fill="url(#a)"/><path d="M31.46,657.64v9.343l5.847-3.734a2.7,2.7,0,0,1-.018-2.044Z" transform="translate(-31.46 -634.828)" fill="url(#a)"/><path d="M336.605,538.471a3.185,3.185,0,0,1,1.1.2L345.4,524.4a3.212,3.212,0,0,1-.743-.771l-18.025,8.723a2.674,2.674,0,0,1-.138,1.867l3.5,2.38,4.268,2.909A3.185,3.185,0,0,1,336.605,538.471Z" transform="translate(-315.691 -505.723)" fill="url(#a)"/><path d="M255.557,847.719l4.986-5.373a3.182,3.182,0,0,1-.382-3.406l-3.929-2.678L252.4,833.65a2.694,2.694,0,0,1-1.647.807l-.63,10.123Z" transform="translate(-242.116 -804.395)" fill="url(#a)"/><path d="M39.8,398.178a2.71,2.71,0,0,1,.518.051l3.094-8.129a4.662,4.662,0,0,1-2.558-3.711H31.64a4.954,4.954,0,0,0-.18,1.322v7.529l6.31,3.86A2.694,2.694,0,0,1,39.8,398.178Z" transform="translate(-31.46 -373.506)" fill="url(#a)"/><path d="M505.262,70.4a4.693,4.693,0,0,1-.027.5l9.946,2.089a3.2,3.2,0,0,1,2.715-2.083l.415-7.485-7.883-4.552-6.568,8.2A4.646,4.646,0,0,1,505.262,70.4Z" transform="translate(-486.569 -57.975)" fill="url(#a)"/><path d="M655.556,571.552l9.361-5.067a1.757,1.757,0,0,1,.876-1.958l-1.821-7.713c-.092.008-.185.014-.279.014a3.185,3.185,0,0,1-1.1-.2L654.9,570.9A3.214,3.214,0,0,1,655.556,571.552Z" transform="translate(-632.08 -537.515)" fill="url(#a)"/><path d="M39.976,832.809A2.7,2.7,0,0,1,38.6,832l-6.315,4.033a4.957,4.957,0,0,0,2.449,3.77l4.635,2.676Z" transform="translate(-32.26 -802.805)" fill="url(#a)"/><path d="M429.573,1086.24a3.184,3.184,0,0,1-3.732.077L421,1091.535l4.24,2.448a4.958,4.958,0,0,0,4.959,0l4.532-2.616Z" transform="translate(-406.741 -1047.739)" fill="url(#a)"/><path d="M678.273,861.352l8.268-4.774-2.471-8.052-.059,0a1.757,1.757,0,0,1-1.278-.549l-9.359,5.066a3.17,3.17,0,0,1-.433,3Z" transform="translate(-649.46 -818.201)" fill="url(#a)"/><path d="M1001.756,834.18a1.769,1.769,0,0,1-.676.782l2.407,7.85,1.574-.909a4.959,4.959,0,0,0,2.479-4.295v-2.549Z" transform="translate(-965.588 -804.906)" fill="url(#a)"/><path d="M930.737,532.267l5.649.858V525.2l-7.65-3.464a3.2,3.2,0,0,1-1.516,1.249l1.822,7.715A1.763,1.763,0,0,1,930.737,532.267Z" transform="translate(-894.432 -503.902)" fill="url(#a)"/><path d="M912.42,204.307a3.191,3.191,0,0,1,2.437,4.021l7.271,3.292v-6.087a4.959,4.959,0,0,0-2.48-4.295l-6.841-3.949Z" transform="translate(-880.174 -191.328)" fill="url(#a)"/><path d="M54.988,46.372a4.66,4.66,0,0,1,7.178-3.447l6.464-8.068a4.958,4.958,0,0,0-4.539.213l-16.02,9.248a4.956,4.956,0,0,0-1.943,2.053Z" transform="translate(-45.593 -34.408)" fill="url(#a)"/><ellipse cx="3.388" cy="3.388" rx="3.388" ry="3.388" transform="translate(10.645 9.036)" fill="url(#a)"/><ellipse cx="1.543" cy="1.543" rx="1.543" ry="1.543" transform="translate(6.798 25.833)" fill="url(#a)"/><ellipse cx="2.123" cy="2.123" rx="2.123" ry="2.123" transform="translate(18.792 33.823)" fill="url(#a)"/><ellipse cx="1.047" cy="1.047" rx="1.047" ry="1.047" transform="translate(33.505 27.517)" fill="url(#a)"/><ellipse cx="2.081" cy="2.081" rx="2.081" ry="2.081" transform="translate(29.532 14.034)" fill="url(#a)"/><path d="M1573.244,339.18c3.883,0,5.786,2.308,5.786,5.458s-1.9,5.458-5.786,5.458h-3.384V339.18Zm.016.889H1570.8v9.139h2.464c3.244,0,4.85-1.809,4.85-4.57S1576.5,340.069,1573.26,340.069Z" transform="translate(-1513.549 -328.024)" fill="#fff"/><path d="M1869.988,355.705a.56.56,0,0,1-.608-.593.6.6,0,0,1,1.2,0A.555.555,0,0,1,1869.988,355.705Zm-.437,9.17V357.39h.889v7.486Z" transform="translate(-1802.106 -342.803)" fill="#fff"/><path d="M1955.816,428.23a3.749,3.749,0,0,1,3.2,1.716V428.4h.8v7.486c0,2.557-1.965,3.6-4.008,3.6a6.567,6.567,0,0,1-2.995-.7v-.858a5.978,5.978,0,0,0,2.885.749c1.7,0,3.244-.749,3.244-2.792v-1.48a3.6,3.6,0,0,1-3.119,1.653,3.92,3.92,0,0,1,0-7.831Zm.11.811a3.108,3.108,0,0,0,0,6.207,3.262,3.262,0,0,0,3.01-1.981v-2.137a3.261,3.261,0,0,0-3.011-2.09Z" transform="translate(-1881.788 -413.815)" fill="#fff"/><path d="M2226.618,355.705a.56.56,0,0,1-.608-.593.6.6,0,0,1,1.2,0A.555.555,0,0,1,2226.618,355.705Zm-.437,9.17V357.39h.889v7.486Z" transform="translate(-2145.681 -342.803)" fill="#fff"/><path d="M2298.587,361.34v2.62h3.135v.826h-3.135v4.336c0,1.185.562,1.653,1.731,1.653a4.142,4.142,0,0,0,1.638-.343v.811a4.8,4.8,0,0,1-1.872.359,2.138,2.138,0,0,1-2.371-2.324v-4.492h-1.4v-.826h1.4v-2.386Z" transform="translate(-2213.409 -349.373)" fill="#fff"/><path d="M2479.485,435.176a1.8,1.8,0,0,0,.577-.11v.717a2.344,2.344,0,0,1-.811.156,1.185,1.185,0,0,1-1.294-1.154,4.086,4.086,0,0,1-3.073,1.263c-1.31,0-2.6-.686-2.6-2.214,0-1.856,1.716-2.448,3.307-2.448a8.942,8.942,0,0,1,2.355.328v-.5a2.108,2.108,0,0,0-2.386-2.183,6.884,6.884,0,0,0-2.682.53v-.873a8.467,8.467,0,0,1,2.776-.468,2.857,2.857,0,0,1,3.166,3.1v3.2A.594.594,0,0,0,2479.485,435.176Zm-4.429.11a3.512,3.512,0,0,0,2.885-1.466v-1.373a9.265,9.265,0,0,0-2.23-.312c-1.232,0-2.526.406-2.526,1.653,0,1.029.919,1.5,1.871,1.5Z" transform="translate(-2382.937 -413.805)" fill="#fff"/><path d="M2723.269,326.4v11.384h-.889V326.4Z" transform="translate(-2623.883 -315.712)" fill="#fff"/><path d="M2804.953,333.64a7.765,7.765,0,0,1,3.306.717v1.731a5.767,5.767,0,0,0-3.057-.811c-2.136,0-4.289,1.171-4.289,4.024,0,3.119,2.261,4.039,4.242,4.039a4.047,4.047,0,0,0,1.637-.312V338.9h1.731v5.334a8.683,8.683,0,0,1-3.477.732c-3.026,0-5.958-1.591-5.958-5.661C2799.089,335.449,2802.021,333.64,2804.953,333.64Z" transform="translate(-2697.785 -322.687)" fill="#fff"/><path d="M3100.7,427.38c2.979,0,4.008,2.4,3.524,4.57h-5.63c.187,1.341,1.5,1.9,2.87,1.9a5.494,5.494,0,0,0,2.37-.53v1.435a6.42,6.42,0,0,1-2.682.515c-2.293,0-4.242-1.31-4.242-3.946A3.751,3.751,0,0,1,3100.7,427.38Zm.078,1.388a2.043,2.043,0,0,0-2.2,1.934h4.148A1.766,1.766,0,0,0,3100.777,428.768Z" transform="translate(-2984.703 -412.996)" fill="#fff"/><path d="M3347.256,427.38a2.914,2.914,0,0,1,3.088,3.057v4.632h-1.668v-4.414a1.627,1.627,0,0,0-1.747-1.794,2.631,2.631,0,0,0-2.09,1.248v4.959h-1.669v-7.486h1.482v1.028A3.42,3.42,0,0,1,3347.256,427.38Z" transform="translate(-3221.949 -412.996)" fill="#fff"/><path d="M3584.709,427.38c2.979,0,4.008,2.4,3.525,4.57h-5.63c.187,1.341,1.5,1.9,2.87,1.9a5.493,5.493,0,0,0,2.37-.53v1.435a6.422,6.422,0,0,1-2.682.515c-2.292,0-4.242-1.31-4.242-3.946A3.751,3.751,0,0,1,3584.709,427.38Zm.078,1.388a2.043,2.043,0,0,0-2.2,1.934h4.148A1.766,1.766,0,0,0,3584.787,428.768Z" transform="translate(-3450.997 -412.996)" fill="#fff"/><path d="M3831.774,428.224v1.638a2.69,2.69,0,0,0-2.965,1.466v4.539h-1.669V428.38h1.482v1.232A3.341,3.341,0,0,1,3831.774,428.224Z" transform="translate(-3688.205 -413.793)" fill="#fff"/><path d="M3977.823,433.874a1.769,1.769,0,0,0,.5-.094v1.2a2.915,2.915,0,0,1-1.062.187,1.5,1.5,0,0,1-1.5-.873,4.343,4.343,0,0,1-2.823.967,2.351,2.351,0,0,1-2.62-2.293c0-1.918,1.777-2.511,3.337-2.511a9.867,9.867,0,0,1,1.949.22v-.265c0-.936-.687-1.591-1.964-1.591a6.662,6.662,0,0,0-2.7.577v-1.53a9.165,9.165,0,0,1,2.87-.5c2.121,0,3.462,1.014,3.462,3.275v2.682A.486.486,0,0,0,3977.823,433.874Zm-5.786-1.014c0,.732.655,1.107,1.4,1.107a3.042,3.042,0,0,0,2.167-.889v-1.263a8.721,8.721,0,0,0-1.622-.187C3973.034,431.628,3972.036,431.924,3972.036,432.86Z" transform="translate(-3826.144 -412.986)" fill="#fff"/><path d="M4199.556,360.06v2.667h2.714v1.467h-2.714v3.43c0,.982.453,1.31,1.419,1.31a4.028,4.028,0,0,0,1.513-.3v1.435a6.116,6.116,0,0,1-2.013.328,2.291,2.291,0,0,1-2.573-2.464v-3.742h-1.341v-1.467h1.341v-2.261Z" transform="translate(-4044.103 -348.14)" fill="#fff"/><path d="M4392.329,341.591a.991.991,0,1,1,1.014-1A.936.936,0,0,1,4392.329,341.591Zm-.842,8.921v-7.486h1.668v7.486Z" transform="translate(-4231.713 -328.439)" fill="#fff"/><path d="M4491.225,427.38a3.948,3.948,0,1,1-4.055,3.947A3.831,3.831,0,0,1,4491.225,427.38Zm0,1.528a2.417,2.417,0,1,0,2.355,2.416A2.263,2.263,0,0,0,4491.225,428.908Z" transform="translate(-4324.076 -412.996)" fill="#fff"/><path d="M4757.087,427.38a2.914,2.914,0,0,1,3.087,3.057v4.632h-1.668v-4.414a1.627,1.627,0,0,0-1.747-1.794,2.631,2.631,0,0,0-2.09,1.248v4.959H4753v-7.486h1.482v1.028A3.425,3.425,0,0,1,4757.087,427.38Z" transform="translate(-4580.175 -412.996)" fill="#fff"/><path d="M1584.417,819.88v6.395h-.937V819.88Z" transform="translate(-1526.67 -791.129)" fill="#fff"/><path d="M1636.55,876.6a1.96,1.96,0,0,1,1.98,2.567h-3.163c.105.753.842,1.069,1.611,1.069a3.075,3.075,0,0,0,1.332-.3v.805a3.622,3.622,0,0,1-1.507.289,2.167,2.167,0,0,1-2.383-2.216A2.108,2.108,0,0,1,1636.55,876.6Zm.044.78a1.147,1.147,0,0,0-1.235,1.086h2.33a.993.993,0,0,0-1.1-1.086Z" transform="translate(-1575.746 -845.773)" fill="#fff"/><path d="M1768.075,880.253a.992.992,0,0,0,.281-.053v.675a1.638,1.638,0,0,1-.6.105.842.842,0,0,1-.842-.491,2.442,2.442,0,0,1-1.586.543,1.321,1.321,0,0,1-1.472-1.288c0-1.078,1-1.41,1.875-1.41a5.58,5.58,0,0,1,1.095.123v-.149c0-.526-.385-.893-1.1-.893a3.744,3.744,0,0,0-1.515.324v-.859a5.147,5.147,0,0,1,1.611-.28,1.7,1.7,0,0,1,1.945,1.84v1.506A.275.275,0,0,0,1768.075,880.253Zm-3.25-.57c0,.412.368.622.789.622a1.709,1.709,0,0,0,1.218-.5v-.71a4.908,4.908,0,0,0-.911-.105c-.533,0-1.094.167-1.094.692Z" transform="translate(-1700.448 -845.773)" fill="#fff"/><path d="M1907,877.076V878a1.509,1.509,0,0,0-1.664.823v2.549h-.937v-4.205h.832v.692A1.874,1.874,0,0,1,1907,877.076Z" transform="translate(-1835.844 -846.223)" fill="#fff"/><path d="M1997.155,876.6a1.636,1.636,0,0,1,1.735,1.717v2.6h-.937V878.44a.914.914,0,0,0-.981-1.007,1.478,1.478,0,0,0-1.174.7v2.785h-.937v-4.2h.832v.578A1.92,1.92,0,0,1,1997.155,876.6Z" transform="translate(-1922.992 -845.773)" fill="#fff"/><path d="M2122.18,972.822l.517-2.172h.988l-.743,2.172Z" transform="translate(-2045.652 -936.38)" fill="#fff"/><path d="M2244.473,876.6a3.363,3.363,0,0,1,1.515.359v.824a2.886,2.886,0,0,0-1.454-.412c-.377,0-.78.114-.78.456,0,.815,2.532.439,2.532,1.971,0,.929-.858,1.235-1.813,1.235a3.3,3.3,0,0,1-1.647-.4V879.8a3.117,3.117,0,0,0,1.6.447c.525,0,.911-.087.911-.429,0-.78-2.541-.456-2.541-1.962C2242.8,876.933,2243.64,876.6,2244.473,876.6Z" transform="translate(-2161.857 -845.773)" fill="#fff"/><path d="M2362.2,827.06v2.392a1.915,1.915,0,0,1,1.358-.578,1.636,1.636,0,0,1,1.735,1.717v2.6h-.937v-2.479a.914.914,0,0,0-.981-1.007,1.477,1.477,0,0,0-1.174.7v2.786h-.937V827.06Z" transform="translate(-2275.981 -798.046)" fill="#fff"/><path d="M2497.314,880.253a.992.992,0,0,0,.28-.053v.675a1.635,1.635,0,0,1-.6.105.842.842,0,0,1-.842-.491,2.442,2.442,0,0,1-1.585.543,1.321,1.321,0,0,1-1.472-1.288c0-1.078,1-1.41,1.875-1.41a5.586,5.586,0,0,1,1.1.123v-.149c0-.526-.385-.893-1.1-.893a3.743,3.743,0,0,0-1.515.324v-.859a5.147,5.147,0,0,1,1.611-.28,1.7,1.7,0,0,1,1.945,1.84v1.506A.274.274,0,0,0,2497.314,880.253Zm-3.25-.57c0,.412.368.622.789.622a1.709,1.709,0,0,0,1.218-.5v-.71a4.9,4.9,0,0,0-.911-.105c-.534,0-1.1.167-1.1.692Z" transform="translate(-2402.995 -845.773)" fill="#fff"/><path d="M2636.2,877.076V878a1.508,1.508,0,0,0-1.664.823v2.549h-.937v-4.205h.832v.692A1.874,1.874,0,0,1,2636.2,877.076Z" transform="translate(-2538.352 -846.223)" fill="#fff"/><path d="M2715.87,876.6a1.96,1.96,0,0,1,1.98,2.567h-3.163c.105.753.842,1.069,1.611,1.069a3.077,3.077,0,0,0,1.332-.3v.805a3.624,3.624,0,0,1-1.507.289,2.167,2.167,0,0,1-2.383-2.216A2.109,2.109,0,0,1,2715.87,876.6Zm.044.78a1.148,1.148,0,0,0-1.236,1.086h2.329A.99.99,0,0,0,2715.914,877.38Z" transform="translate(-2615.559 -845.773)" fill="#fff"/><path d="M2838.7,972.822l.517-2.172h.988l-.743,2.172Z" transform="translate(-2735.945 -936.38)" fill="#fff"/><path d="M2963.478,828.413a.557.557,0,1,1,0-1.113.557.557,0,1,1,0,1.113Zm-.473,5.011v-4.205h.938v4.205Z" transform="translate(-2855.599 -798.277)" fill="#fff"/><path d="M3026.225,876.6a1.636,1.636,0,0,1,1.734,1.717v2.6h-.937V878.44a.914.914,0,0,0-.981-1.007,1.478,1.478,0,0,0-1.174.7v2.785h-.937v-4.2h.832v.578A1.92,1.92,0,0,1,3026.225,876.6Z" transform="translate(-2914.395 -845.773)" fill="#fff"/><path d="M3160.343,876.6a3.364,3.364,0,0,1,1.516.359v.824a2.885,2.885,0,0,0-1.454-.412c-.376,0-.78.114-.78.456,0,.815,2.532.439,2.532,1.971,0,.929-.858,1.235-1.814,1.235a3.3,3.3,0,0,1-1.647-.4V879.8a3.116,3.116,0,0,0,1.6.447c.526,0,.911-.087.911-.429,0-.78-2.54-.456-2.54-1.962C3158.67,876.933,3159.51,876.6,3160.343,876.6Z" transform="translate(-3044.203 -845.773)" fill="#fff"/><path d="M3279.583,876.6a2.22,2.22,0,0,1,0,4.433,1.944,1.944,0,0,1-1.515-.657v2.47h-.937v-6.132h.833v.657A2.008,2.008,0,0,1,3279.583,876.6Zm-.175.823a1.48,1.48,0,0,0-1.341.876v1.025a1.473,1.473,0,0,0,1.341.885,1.4,1.4,0,0,0,0-2.786Z" transform="translate(-3158.327 -845.773)" fill="#fff"/><path d="M3424.168,828.413a.557.557,0,1,1,.57-.561A.526.526,0,0,1,3424.168,828.413Zm-.473,5.011v-4.205h.938v4.205Z" transform="translate(-3299.426 -798.277)" fill="#fff"/><path d="M3487.221,877.076V878a1.509,1.509,0,0,0-1.664.823v2.549h-.937v-4.205h.833v.692A1.873,1.873,0,0,1,3487.221,877.076Z" transform="translate(-3358.222 -846.223)" fill="#fff"/><path d="M3566.89,876.6a1.96,1.96,0,0,1,1.98,2.567h-3.163c.105.753.842,1.069,1.611,1.069a3.075,3.075,0,0,0,1.331-.3v.805a3.621,3.621,0,0,1-1.506.289,2.167,2.167,0,0,1-2.383-2.216A2.109,2.109,0,0,1,3566.89,876.6Zm.044.78a1.147,1.147,0,0,0-1.235,1.086h2.33a.993.993,0,0,0-1.1-1.086Z" transform="translate(-3435.428 -845.773)" fill="#fff"/><path d="M3699.166,967.239a.57.57,0,1,1,0-1.139.57.57,0,1,1,0,1.139Z" transform="translate(-3564.341 -931.997)" fill="#fff"/></g></g></svg>