<svg xmlns="http://www.w3.org/2000/svg" xmlns:xlink="http://www.w3.org/1999/xlink" width="219.684" height="59.94" viewBox="0 0 219.684 59.94"><defs><linearGradient id="a" x1="0.5" x2="0.5" y2="1" gradientUnits="objectBoundingBox"><stop offset="0" stop-color="#eaf6fa"/><stop offset="0.99" stop-color="#ebeef9"/></linearGradient></defs><g transform="translate(0 -0.002)"><g transform="translate(0 0.002)"><path d="M50.385,12.582,30.121.882a6.57,6.57,0,0,0-6.57,0L3.285,12.582A6.57,6.57,0,0,0,0,18.272v23.4a6.57,6.57,0,0,0,3.286,5.691l20.264,11.7a6.57,6.57,0,0,0,6.57,0l20.265-11.7a6.57,6.57,0,0,0,3.285-5.69v-23.4a6.57,6.57,0,0,0-3.283-5.691Z" transform="translate(0 -0.002)" fill="url(#a)"/><path d="M300.684,415.913l-3.754,9.859a3.291,3.291,0,0,1,.993.91L319.785,416.1a3.876,3.876,0,0,1-.18-1.17c0-.082.007-.161.012-.241l-12.061-2.532A5.654,5.654,0,0,1,300.684,415.913Z" transform="translate(-283.749 -393.865)" fill="#3c66ae"/><path d="M31.46,657.64v11.33l7.091-4.528a3.269,3.269,0,0,1-.022-2.478Z" transform="translate(-30.064 -628.448)" fill="#3c66ae"/><path d="M338.757,541.628a3.862,3.862,0,0,1,1.329.239l9.331-17.3a3.9,3.9,0,0,1-.9-.935l-21.859,10.578a3.244,3.244,0,0,1-.167,2.264l4.24,2.886,5.176,3.528a3.862,3.862,0,0,1,2.851-1.258Z" transform="translate(-311.997 -500.386)" fill="#3c66ae"/><path d="M256.713,850.711l6.046-6.516a3.859,3.859,0,0,1-.464-4.131l-4.765-3.247-4.648-3.167a3.266,3.266,0,0,1-2,.979l-.764,12.276Z" transform="translate(-239.017 -796.645)" fill="#3c66ae"/><path d="M41.574,400.686a3.293,3.293,0,0,1,.628.062l3.753-9.858a5.654,5.654,0,0,1-3.1-4.5H31.678a6.009,6.009,0,0,0-.218,1.6v9.13l7.652,4.681A3.267,3.267,0,0,1,41.574,400.686Z" transform="translate(-30.063 -369.239)" fill="#3c66ae"/><path d="M505.561,72.85a5.719,5.719,0,0,1-.033.61l12.062,2.533a3.876,3.876,0,0,1,3.292-2.527l.5-9.077-9.56-5.52-7.965,9.941A5.634,5.634,0,0,1,505.561,72.85Z" transform="translate(-481.494 -56.257)" fill="#3c66ae"/><path d="M655.7,574.726l11.352-6.145a2.131,2.131,0,0,1,1.063-2.375l-2.209-9.354c-.112.01-.224.017-.339.017a3.863,3.863,0,0,1-1.33-.239l-9.333,17.3A3.9,3.9,0,0,1,655.7,574.726Z" transform="translate(-625.83 -531.922)" fill="#3c66ae"/><path d="M41.61,832.981A3.27,3.27,0,0,1,39.948,832l-7.658,4.891a6.012,6.012,0,0,0,2.97,4.572l5.621,3.245Z" transform="translate(-30.857 -795.068)" fill="#3c66ae"/><path d="M431.4,1086.24a3.862,3.862,0,0,1-4.525.093L421,1092.662l5.142,2.969a6.013,6.013,0,0,0,6.014,0l5.5-3.172Z" transform="translate(-402.312 -1038.023)" fill="#3c66ae"/><path d="M679.407,864.2l10.027-5.789-3-9.764c-.024,0-.047,0-.072,0a2.131,2.131,0,0,1-1.55-.666l-11.35,6.143a3.844,3.844,0,0,1-.526,3.64Z" transform="translate(-643.069 -810.339)" fill="#3c66ae"/><path d="M1001.9,834.18a2.145,2.145,0,0,1-.819.948l2.919,9.52,1.909-1.1a6.014,6.014,0,0,0,3.007-5.208v-3.091Z" transform="translate(-956.643 -797.151)" fill="#3c66ae"/><path d="M931.485,534.506l6.851,1.04v-9.6l-9.277-4.2a3.885,3.885,0,0,1-1.839,1.515l2.21,9.356A2.138,2.138,0,0,1,931.485,534.506Z" transform="translate(-886.061 -498.581)" fill="#3c66ae"/><path d="M912.42,205.8a3.869,3.869,0,0,1,2.955,4.876l8.817,3.992v-7.382a6.014,6.014,0,0,0-3.007-5.208l-8.3-4.789Z" transform="translate(-871.918 -188.533)" fill="#3c66ae"/><path d="M56.873,48.917a5.651,5.651,0,0,1,8.705-4.18l7.839-9.784a6.012,6.012,0,0,0-5.5.258L48.486,46.427a6.01,6.01,0,0,0-2.356,2.49Z" transform="translate(-44.082 -32.881)" fill="#3c66ae"/><circle cx="4.109" cy="4.109" r="4.109" transform="translate(14.306 12.485)" fill="#f18918"/><circle cx="1.871" cy="1.871" r="1.871" transform="translate(9.64 32.855)" fill="#60b566"/><circle cx="2.575" cy="2.575" r="2.575" transform="translate(24.185 42.544)" fill="#ffd302"/><circle cx="1.27" cy="1.27" r="1.27" transform="translate(42.029 34.897)" fill="#e62239"/><circle cx="2.523" cy="2.523" r="2.523" transform="translate(37.21 18.547)" fill="#9b519a"/><path d="M1573.964,339.18c4.709,0,7.017,2.8,7.017,6.619s-2.308,6.619-7.017,6.619h-4.1V339.18Zm.019,1.078H1571v11.083h2.988c3.934,0,5.882-2.194,5.882-5.542S1577.917,340.258,1573.983,340.258Z" transform="translate(-1500.175 -324.124)" fill="#fff"/><path d="M1870.118,355.957a.679.679,0,0,1-.738-.719.728.728,0,0,1,1.456,0A.673.673,0,0,1,1870.118,355.957Zm-.53,11.121V358h1.078v9.078Z" transform="translate(-1786.4 -338.783)" fill="#fff"/><path d="M1956.609,428.23a4.546,4.546,0,0,1,3.877,2.08v-1.872h.967v9.078c0,3.1-2.383,4.369-4.861,4.369a7.965,7.965,0,0,1-3.632-.851v-1.04a7.252,7.252,0,0,0,3.5.908c2.061,0,3.934-.908,3.934-3.386v-1.795a4.367,4.367,0,0,1-3.782,2,4.754,4.754,0,0,1,0-9.5Zm.133.984a3.769,3.769,0,0,0,0,7.528,3.956,3.956,0,0,0,3.65-2.4v-2.591a3.954,3.954,0,0,0-3.651-2.534Z" transform="translate(-1865.438 -409.221)" fill="#fff"/><path d="M2226.748,355.957a.679.679,0,0,1-.738-.719.728.728,0,0,1,1.457,0A.674.674,0,0,1,2226.748,355.957Zm-.53,11.121V358h1.079v9.078Z" transform="translate(-2127.199 -338.783)" fill="#fff"/><path d="M2299.072,361.34v3.177h3.8v1h-3.8v5.258c0,1.437.681,2,2.1,2a5.022,5.022,0,0,0,1.986-.416v.984a5.823,5.823,0,0,1-2.27.435,2.593,2.593,0,0,1-2.875-2.818V365.52h-1.7v-1h1.7v-2.894Z" transform="translate(-2194.379 -345.3)" fill="#fff"/><path d="M2481.018,436.656a2.19,2.19,0,0,0,.7-.133v.87a2.841,2.841,0,0,1-.984.189,1.438,1.438,0,0,1-1.57-1.4,4.954,4.954,0,0,1-3.726,1.532c-1.589,0-3.158-.832-3.158-2.686,0-2.251,2.081-2.969,4.01-2.969a10.846,10.846,0,0,1,2.856.4v-.606c0-1.589-1.021-2.648-2.894-2.648a8.354,8.354,0,0,0-3.253.643v-1.058a10.274,10.274,0,0,1,3.366-.567c2.4,0,3.84,1.343,3.84,3.764v3.877A.721.721,0,0,0,2481.018,436.656Zm-5.371.133a4.26,4.26,0,0,0,3.5-1.778v-1.665a11.237,11.237,0,0,0-2.7-.378c-1.494,0-3.063.492-3.063,2,0,1.248,1.115,1.816,2.268,1.816Z" transform="translate(-2362.538 -409.212)" fill="#fff"/><path d="M2723.458,326.4v13.805h-1.078V326.4Z" transform="translate(-2601.536 -311.911)" fill="#fff"/><path d="M2806.2,333.64a9.419,9.419,0,0,1,4.01.87v2.1a6.993,6.993,0,0,0-3.707-.984c-2.591,0-5.2,1.42-5.2,4.88,0,3.782,2.742,4.9,5.144,4.9a4.907,4.907,0,0,0,1.986-.378v-5.012h2.1v6.468a10.532,10.532,0,0,1-4.217.888c-3.669,0-7.225-1.929-7.225-6.865C2799.09,335.834,2802.645,333.64,2806.2,333.64Z" transform="translate(-2674.84 -318.83)" fill="#fff"/><path d="M3101.506,427.38c3.612,0,4.861,2.912,4.274,5.542h-6.828c.227,1.626,1.816,2.308,3.48,2.308a6.663,6.663,0,0,0,2.875-.643v1.74a7.784,7.784,0,0,1-3.253.624c-2.78,0-5.144-1.589-5.144-4.785A4.549,4.549,0,0,1,3101.506,427.38Zm.094,1.683a2.477,2.477,0,0,0-2.667,2.345h5.031A2.142,2.142,0,0,0,3101.6,429.063Z" transform="translate(-2959.44 -408.409)" fill="#fff"/><path d="M3348.125,427.38a3.534,3.534,0,0,1,3.745,3.707V436.7h-2.023v-5.352a1.973,1.973,0,0,0-2.119-2.175,3.19,3.19,0,0,0-2.534,1.513V436.7h-2.024v-9.078h1.8v1.246A4.148,4.148,0,0,1,3348.125,427.38Z" transform="translate(-3194.769 -408.409)" fill="#fff"/><path d="M3585.516,427.38c3.613,0,4.861,2.912,4.274,5.542h-6.828c.227,1.626,1.816,2.308,3.48,2.308a6.666,6.666,0,0,0,2.875-.643v1.74a7.788,7.788,0,0,1-3.253.624c-2.78,0-5.144-1.589-5.144-4.785A4.549,4.549,0,0,1,3585.516,427.38Zm.095,1.683a2.477,2.477,0,0,0-2.667,2.345h5.031A2.141,2.141,0,0,0,3585.61,429.063Z" transform="translate(-3421.966 -408.409)" fill="#fff"/><path d="M3832.759,428.228v1.986a3.262,3.262,0,0,0-3.6,1.778v5.5h-2.024v-9.079h1.8v1.494A4.051,4.051,0,0,1,3832.759,428.228Z" transform="translate(-3657.256 -409.2)" fill="#fff"/><path d="M3979.419,435.257a2.139,2.139,0,0,0,.6-.114V436.6a3.534,3.534,0,0,1-1.287.227,1.812,1.812,0,0,1-1.815-1.059,5.268,5.268,0,0,1-3.424,1.173c-1.645,0-3.177-.908-3.177-2.78,0-2.326,2.156-3.045,4.048-3.045a11.965,11.965,0,0,1,2.364.266v-.321c0-1.135-.833-1.929-2.383-1.929a8.08,8.08,0,0,0-3.271.7v-1.855a11.115,11.115,0,0,1,3.48-.605c2.572,0,4.2,1.229,4.2,3.972v3.253A.589.589,0,0,0,3979.419,435.257Zm-7.017-1.229c0,.888.794,1.343,1.7,1.343a3.689,3.689,0,0,0,2.628-1.078v-1.532a10.571,10.571,0,0,0-1.967-.227C3973.612,432.534,3972.4,432.893,3972.4,434.028Z" transform="translate(-3794.081 -408.399)" fill="#fff"/><path d="M4200.193,360.06v3.234h3.291v1.779h-3.291v4.159c0,1.191.548,1.589,1.721,1.589a4.883,4.883,0,0,0,1.835-.36v1.74a7.414,7.414,0,0,1-2.442.4c-1.758,0-3.121-.87-3.121-2.988v-4.537h-1.626v-1.779h1.626v-2.742Z" transform="translate(-4010.277 -344.077)" fill="#fff"/><path d="M4392.549,342.012a1.2,1.2,0,1,1,1.229-1.21A1.135,1.135,0,0,1,4392.549,342.012Zm-1.021,10.818v-9.078h2.023v9.078Z" transform="translate(-4196.374 -324.535)" fill="#fff"/><path d="M4492.088,427.38a4.787,4.787,0,1,1-4.917,4.786A4.645,4.645,0,0,1,4492.088,427.38Zm0,1.853a2.931,2.931,0,1,0,2.856,2.93A2.745,2.745,0,0,0,4492.088,429.233Z" transform="translate(-4287.988 -408.409)" fill="#fff"/><path d="M4757.957,427.38a3.534,3.534,0,0,1,3.745,3.707V436.7h-2.023v-5.352a1.973,1.973,0,0,0-2.118-2.175,3.19,3.19,0,0,0-2.535,1.513V436.7H4753v-9.078h1.8v1.246A4.157,4.157,0,0,1,4757.957,427.38Z" transform="translate(-4542.018 -408.409)" fill="#fff"/><path d="M1584.617,819.88v7.755h-1.137V819.88Z" transform="translate(-1513.191 -783.486)" fill="#fff"/><path d="M1637,876.6a2.376,2.376,0,0,1,2.4,3.113h-3.835c.127.913,1.021,1.3,1.953,1.3a3.729,3.729,0,0,0,1.615-.361v.977a4.389,4.389,0,0,1-1.827.351,2.628,2.628,0,0,1-2.89-2.688A2.556,2.556,0,0,1,1637,876.6Zm.053.945a1.391,1.391,0,0,0-1.5,1.317h2.826a1.2,1.2,0,0,0-1.329-1.317Z" transform="translate(-1561.869 -837.688)" fill="#fff"/><path d="M1768.971,881.03a1.2,1.2,0,0,0,.34-.064v.818a1.985,1.985,0,0,1-.722.127,1.022,1.022,0,0,1-1.021-.595,2.961,2.961,0,0,1-1.923.659,1.6,1.6,0,0,1-1.785-1.562c0-1.307,1.211-1.71,2.274-1.71a6.773,6.773,0,0,1,1.328.149v-.181c0-.637-.468-1.083-1.338-1.083a4.538,4.538,0,0,0-1.838.393V876.94a6.24,6.24,0,0,1,1.953-.34,2.06,2.06,0,0,1,2.358,2.231v1.826A.334.334,0,0,0,1768.971,881.03Zm-3.942-.691c0,.5.446.755.956.755a2.074,2.074,0,0,0,1.477-.605v-.861a5.954,5.954,0,0,0-1.1-.127c-.647,0-1.326.2-1.326.839Z" transform="translate(-1685.564 -837.688)" fill="#fff"/><path d="M1907.555,877.078v1.116a1.83,1.83,0,0,0-2.018,1v3.091H1904.4v-5.1h1.009v.839A2.273,2.273,0,0,1,1907.555,877.078Z" transform="translate(-1819.865 -838.135)" fill="#fff"/><path d="M1997.643,876.6a1.984,1.984,0,0,1,2.1,2.082v3.155h-1.137v-3.006a1.108,1.108,0,0,0-1.189-1.222,1.792,1.792,0,0,0-1.424.85v3.378h-1.137v-5.1h1.009v.7A2.328,2.328,0,0,1,1997.643,876.6Z" transform="translate(-1906.31 -837.688)" fill="#fff"/><path d="M2122.18,973.285l.627-2.635h1.2l-.9,2.635Z" transform="translate(-2027.978 -927.564)" fill="#fff"/><path d="M2244.829,876.6a4.079,4.079,0,0,1,1.837.435v1a3.5,3.5,0,0,0-1.763-.5c-.457,0-.946.138-.946.553,0,.988,3.07.533,3.07,2.39,0,1.126-1.041,1.5-2.2,1.5a4,4,0,0,1-2-.488v-1.008a3.78,3.78,0,0,0,1.944.542c.638,0,1.1-.106,1.1-.521,0-.945-3.081-.553-3.081-2.38C2242.8,877,2243.82,876.6,2244.829,876.6Z" transform="translate(-2143.244 -837.688)" fill="#fff"/><path d="M2362.4,827.06v2.9a2.321,2.321,0,0,1,1.647-.7,1.984,1.984,0,0,1,2.1,2.082V834.5h-1.137V831.49a1.108,1.108,0,0,0-1.19-1.222,1.792,1.792,0,0,0-1.423.85V834.5h-1.136V827.06Z" transform="translate(-2256.445 -790.348)" fill="#fff"/><path d="M2498.211,881.03a1.2,1.2,0,0,0,.34-.064v.818a1.985,1.985,0,0,1-.722.127,1.022,1.022,0,0,1-1.021-.595,2.962,2.962,0,0,1-1.923.659,1.6,1.6,0,0,1-1.785-1.562c0-1.307,1.211-1.71,2.273-1.71a6.777,6.777,0,0,1,1.328.149v-.181c0-.637-.468-1.083-1.339-1.083a4.536,4.536,0,0,0-1.837.393V876.94a6.24,6.24,0,0,1,1.953-.34,2.06,2.06,0,0,1,2.359,2.231v1.826A.332.332,0,0,0,2498.211,881.03Zm-3.941-.691c0,.5.446.755.956.755a2.073,2.073,0,0,0,1.477-.605v-.861a5.952,5.952,0,0,0-1.1-.127c-.648,0-1.328.2-1.328.839Z" transform="translate(-2382.434 -837.688)" fill="#fff"/><path d="M2636.755,877.078v1.116a1.83,1.83,0,0,0-2.019,1v3.091H2633.6v-5.1h1.01v.839A2.273,2.273,0,0,1,2636.755,877.078Z" transform="translate(-2516.696 -838.135)" fill="#fff"/><path d="M2716.323,876.6a2.377,2.377,0,0,1,2.4,3.113h-3.835c.127.913,1.021,1.3,1.953,1.3a3.731,3.731,0,0,0,1.615-.361v.977a4.393,4.393,0,0,1-1.827.351,2.629,2.629,0,0,1-2.89-2.688A2.558,2.558,0,0,1,2716.323,876.6Zm.053.945a1.392,1.392,0,0,0-1.5,1.317h2.824A1.2,1.2,0,0,0,2716.376,877.545Z" transform="translate(-2593.279 -837.688)" fill="#fff"/><path d="M2838.7,973.285l.626-2.635h1.2l-.9,2.635Z" transform="translate(-2712.692 -927.564)" fill="#fff"/><path d="M2963.6,828.649a.675.675,0,1,1,.691-.68A.638.638,0,0,1,2963.6,828.649Zm-.573,6.076v-5.1h1.136v5.1Z" transform="translate(-2831.38 -790.577)" fill="#fff"/><path d="M3026.713,876.6a1.984,1.984,0,0,1,2.1,2.082v3.155h-1.137v-3.006a1.108,1.108,0,0,0-1.189-1.222,1.791,1.791,0,0,0-1.423.85v3.378h-1.137v-5.1h1.01v.7A2.328,2.328,0,0,1,3026.713,876.6Z" transform="translate(-2889.699 -837.688)" fill="#fff"/><path d="M3160.7,876.6a4.08,4.08,0,0,1,1.838.435v1a3.5,3.5,0,0,0-1.764-.5c-.457,0-.945.138-.945.553,0,.988,3.07.533,3.07,2.39,0,1.126-1.042,1.5-2.2,1.5a4,4,0,0,1-2-.488v-1.008a3.778,3.778,0,0,0,1.944.542c.637,0,1.1-.106,1.1-.521,0-.945-3.08-.553-3.08-2.38C3158.67,877,3159.689,876.6,3160.7,876.6Z" transform="translate(-3018.459 -837.688)" fill="#fff"/><path d="M3280.1,876.6a2.693,2.693,0,0,1,0,5.375,2.356,2.356,0,0,1-1.837-.8v3h-1.137v-7.436h1.009v.8A2.436,2.436,0,0,1,3280.1,876.6Zm-.212,1a1.793,1.793,0,0,0-1.625,1.062V879.9a1.784,1.784,0,0,0,1.625,1.073,1.693,1.693,0,0,0,0-3.378Z" transform="translate(-3131.66 -837.688)" fill="#fff"/><path d="M3424.291,828.649a.675.675,0,1,1,.69-.68A.638.638,0,0,1,3424.291,828.649Zm-.574,6.076v-5.1h1.137v5.1Z" transform="translate(-3271.619 -790.577)" fill="#fff"/><path d="M3487.775,877.078v1.116a1.83,1.83,0,0,0-2.019,1v3.091h-1.137v-5.1h1.009v.839A2.274,2.274,0,0,1,3487.775,877.078Z" transform="translate(-3329.94 -838.135)" fill="#fff"/><path d="M3567.343,876.6a2.376,2.376,0,0,1,2.4,3.113h-3.835c.127.913,1.021,1.3,1.953,1.3a3.73,3.73,0,0,0,1.615-.361v.977a4.391,4.391,0,0,1-1.827.351,2.628,2.628,0,0,1-2.889-2.688A2.557,2.557,0,0,1,3567.343,876.6Zm.053.945a1.392,1.392,0,0,0-1.5,1.317h2.826a1.2,1.2,0,0,0-1.328-1.317Z" transform="translate(-3406.523 -837.688)" fill="#fff"/><path d="M3699.293,967.481a.691.691,0,1,1,0-1.381.691.691,0,1,1,0,1.381Z" transform="translate(-3534.394 -923.216)" fill="#fff"/></g></g></svg>