<svg xmlns="http://www.w3.org/2000/svg" width="48" height="48" viewBox="0 0 48 48"><path d="M48,24a16.5,16.5,0,0,0-1.186-6.142A1.407,1.407,0,0,0,48,16.469,16.473,16.473,0,0,0,24,1.82,16.473,16.473,0,0,0,0,16.469a1.406,1.406,0,0,0,1.186,1.389A16.5,16.5,0,0,0,0,24a1.407,1.407,0,0,0,1.186,1.389A16.5,16.5,0,0,0,0,31.531a1.406,1.406,0,0,0,1.406,1.406h10.6a15.064,15.064,0,0,0,5.246,4.415q-.616.227-1.217.5l-.048.022a19.254,19.254,0,0,0-1.867.967A19.589,19.589,0,0,0,7.127,45.89,1.406,1.406,0,0,0,8.344,48H39.656a1.406,1.406,0,0,0,1.217-2.11,19.592,19.592,0,0,0-6.994-7.052A19.276,19.276,0,0,0,32,37.868l-.041-.018q-.6-.269-1.218-.5a15.063,15.063,0,0,0,5.246-4.415h10.6A1.406,1.406,0,0,0,48,31.531a16.5,16.5,0,0,0-1.186-6.142A1.407,1.407,0,0,0,48,24ZM30.778,29.372A5.378,5.378,0,0,1,25.406,24v0a5.372,5.372,0,1,1,5.372,5.374ZM36.15,17.831A8.174,8.174,0,0,0,24,19.418,8.174,8.174,0,0,0,11.85,17.83V15.265a6.419,6.419,0,0,1,10.933.307,1.406,1.406,0,0,0,2.434,0,6.419,6.419,0,0,1,10.933-.307ZM22.594,24a5.372,5.372,0,1,1-5.372-5.375A5.378,5.378,0,0,1,22.594,24v0A.007.007,0,0,1,22.594,24Zm0,19.2L19.1,39.706a16.617,16.617,0,0,1,3.493-.683Zm2.813-4.176a16.59,16.59,0,0,1,3.493.683L25.406,43.2Zm-9.122,1.844L20.6,45.188H11.01A16.752,16.752,0,0,1,16.284,40.867ZM36.99,45.188h-9.6l4.321-4.321A16.758,16.758,0,0,1,36.99,45.188ZM24,36.15a12.128,12.128,0,0,1-9.327-4.373A8.18,8.18,0,0,0,24,28.582a8.18,8.18,0,0,0,9.327,3.2A12.129,12.129,0,0,1,24,36.15ZM43.361,17.173a13.628,13.628,0,0,1,1.754,5.421h-.537a1.406,1.406,0,0,0-1.217,2.11,13.625,13.625,0,0,1,1.754,5.421H37.651a14.872,14.872,0,0,0,1.309-5.914c0-.07,0-.14,0-.211V14.867a1.4,1.4,0,0,0-.189-.7A9.228,9.228,0,0,0,24,12.515,9.228,9.228,0,0,0,9.227,14.163a1.407,1.407,0,0,0-.189.7V24c0,.071,0,.141,0,.211a14.865,14.865,0,0,0,1.309,5.914H2.885A13.63,13.63,0,0,1,4.639,24.7a1.406,1.406,0,0,0-1.217-2.11H2.885a13.632,13.632,0,0,1,1.754-5.421,1.406,1.406,0,0,0-1.217-2.11H2.884A13.661,13.661,0,0,1,23.3,4.639a1.406,1.406,0,0,0,1.408,0A13.661,13.661,0,0,1,45.116,15.062h-.538a1.407,1.407,0,0,0-1.217,2.11Zm0,0" transform="translate(0)" fill="#232569"/></svg>